<?xml version="1.0" encoding="UTF-8"?>
<svg version="1.1" viewBox="0 0 1768 1552" width="1280" height="1280" xmlns="http://www.w3.org/2000/svg">
<path transform="translate(0)" d="m0 0h1768v1552h-1768z" fill="#FCFDFD"/>
<path transform="translate(301,537)" d="m0 0h14l12 5 11 8 1 3-10 7-5 2-1 19v619l55-11 48-8 34-4 42-3 16-1 39-1h16l38 1 44 4 34 5 50 8 39 5 32 3 21 1 37 1h27l48-2 56-6 44-5 34-3 18-1 35-1h56l41 1 39 2 53 5 43 5 19 3 16 2-1-591-1-46-4-9-2-3 1-4 13-8 5-2h15l9 3 10 7 6 7 4 9 1 5 1 96 1 181 1 226 1 55v110l-5 10-7 8-10 6-9 2h-9l-72-12-48-6-32-3-38-2-27-1h-54l-53 3-47 5-77 10-18 2-16 4-16 8-16 4-19 1h-45l-29-1-15-3-12-5-15-7-26-4-67-9-46-5-35-2-27-1h-50l-54 3-41 4-45 6-57 10-8 1h-11l-10-4-10-9-6-9-2-7-1-665 2-8 7-11 10-8z" fill="#E08F3A"/>
<path transform="translate(854,556)" d="m0 0h4l1 23 2 10 10 9 10 10 7 8 15 16-2 4-3 1v2l-8 7-12 12h-2v2l-7 6h-2v2l-6 4-1 2v503l2 3 17-8 12-7 32-14 15-7 26-10 30-10 29-8 30-7 22-4 19-3 17-2 38-3 38-1h28l67 4h12l3-2 3-6 4-1 4 5 5 1 3-1-1-5h-2l-1-10-3-3-3 1v-6l-1-3h-2v-7l-2-4v-6l4 4v4l9-1 2 6 3 3-1 5-1 4h6l5-1 2 1 1 4 5 2h4l2 1v3h5l1-5 4-2h3l2 2 3-1 1-2 2 2-1 2 5 1 5-1 2 3h-2v2h-2l2 6 3-1 5-8h3l2 17 1 2 3 32 3 13 2 2 1-196h1v243h-15l-34-5-47-5-34-3-39-2-41-1h-56l-35 1-31 2-48 5-63 7-28 2-30 1h-27l-37-1-33-2-37-4-48-7-43-7-35-4-24-2-38-1h-19l-36 1-45 3-29 3-24 3-47 8-44 9h-6v-36h1v25h2l1-14 3-22 2-2 2 6-1 9v3l2-5h1l-1 11 3-5h2l1-3 10-6 4-3 14-4 4-4h2l1-3 10-4 10-7 9-6 5-2 7-7 6-16 3-3 14-2 55-3 36-1h17l47 2 25 3 12 1 9 2 14 2 28 6 35 9 20 6 23 8 23 9 15 7 20 9 23 11 5 3h3l1-95v-392l-7-1-10-9v-2l-3-1-7-8-9-10-7-8-17-17 1-4 4-5 10-8 18-18 8-7 10-9 5-4 5-1v-17z" fill="#E4F1F9"/>
<path transform="translate(1125,232)" d="m0 0h6l5 5 5 10 6 26 7 34 4 5 19 10 18 8 16 8 15 8 1 1-1 9-4 6-11 7-25 14-22 13-4 4-2 8-3 28-4 31-4 9-5 4-9-1-10-8-17-16-10-10-13-10-7-4h-8l-36 8-16 4-3 1-1 8v15l4 6 15 14 8 7 13 11 12 11 5 5-1 10-5 4-13 5-48 11-10 3-4 5-8 17-10 25-8 16-6 9-2 2-7-1-10-10-14-24-13-22-6-8-4-3-18-2-33-2-21-3-5-5-2-3v-8l3-6 11-12 7-8 9-10 11-12 6-8 1-2v-7l-11-43-4-21 1-7 5-5 2-1h7l15 6 23 10 21 9 5 2 7-1 11-6 25-16 16-9 8-4 11-1 5-8 5-12v-7l-7-14-10-16-6-11-6-10-6-13 1-7 5-4 2-1h17l42 5h18l8-7 7-8 12-14 14-15 7-7z" fill="#FFF1B3"/>
<path transform="translate(740,142)" d="m0 0h5l6 5 4 11 6 28 7 30 3 6 19 10 28 13 19 10 4 4-1 8-4 5-16 10-17 10-25 14-4 5-2 10-5 40-4 22-4 6-6 2-5-1-10-8-13-12-14-13-11-9-10-7h-7l-48 11-10 2h-9l-8-6-1-2v-8l5-13 15-32 8-18-1-9-13-23-14-24-6-12-1-9 3-3 8-3h11l41 5 5 1h16l9-8 7-8 10-11 7-8 13-14 8-6z" fill="#FFF1B3"/>
<path transform="translate(924,768)" d="m0 0 3 1 7 8 30 32 7 8 8 8-3 5-8 7-17 16-7 7-8 7-14 13-4-1-10-10-7-8-15-16-10-11-7-8-3-3 2-4 16-15 10-9 15-14 8-7z" fill="#FCB9CE"/>
<path transform="translate(852,573)" d="m0 0h1l1 8v85l-1 22-9-2-10-9v-2l-3-1-7-8-9-10-7-8-17-17 1-4 4-5 10-8 18-18 8-7 10-9 5-4 5-1z" fill="#D1FBFA"/>
<path transform="translate(859,587)" d="m0 0 7 6 15 15 7 8 15 16-2 4-3 1v2l-8 7-12 12h-2v2l-7 6h-2v2l-6 4-2 5h-1v-83z" fill="#D1FBFA"/>
<path transform="translate(388,1081)" d="m0 0 3 1-2 6 9-1 3 1 3 4 4-1 8 2-2 5-5 6-13 1-7 1-6-1-4 2-6 1-5 3-4 2-3 1v4l-5 5-1 2h-2l-2 5-4 2h-5v3h-2l-1 4-3 10h-1l-1-8 1-24 4-20 3-4 1-5h2l1-2 6 12 6-1 1 4h3v-2l5-3 1-3h2l2-7 3-3h2v2z" fill="#E4F1FA"/>
<path transform="translate(1344,532)" d="m0 0 10 3 10 4 4 2v2l6 1 3 3v3l8 1 5 2v3l-8-1 1 6 1 4-2 2-8-9-2-1h-7l-5 5-4 3-2 7-3 5h-4l1 3-3 9-6 4-5 1-4-7v-7l-2-3v-7l3-5 1-13 2-3h2l-1-7 3-9h5z" fill="#E4F1FA"/>
<path transform="translate(1311,510)" d="m0 0 6 2 2-1 7 3 8 4v4h-6l-3 12-3 4 3 2-1 4-3 3-5 10-5 2-5-1v-2l-2 1-1 3h4l-1 10 3 1v2h2v2l4 1 4 9-1 5-3-3-3 13h-1l-1-10-3-2 1-2 2-5-7-1 1-4 1-3-4-2 1-5 1-3h-4l-1 7h-1l1-24 3 3 4-2 3-1 1-3-2-5 1-7 5-4 5-2-2-7-5-2v-3l-3-1z" fill="#E4F1FA"/>
<path transform="translate(1333,820)" d="m0 0 3 1 2 13 1 8-1 2 1 14 1 16-1 16v14l-1 9-1 1 1 10-2 3-4-1-1-1-2-24-1-3v-43l1-1 1-12 1-2-2-3 1-5 2-6-1-3z" fill="#E4F1FA"/>
<path transform="translate(418,985)" d="m0 0h1l1 7v8l-2 13-1 24-2 23-1 7-5 6-6 3-4-1 1-5-2-5-3-1-2-9 5-6 7-3 3-7 5-20 3-29z" fill="#E4F1FA"/>
<path transform="translate(1313,633)" d="m0 0 2 2v19l3 9 1 6-3 4v5l1 1v7l2 9-1 7 2 6 1 4-1 33-3 22-1 3-5 2v-25l1-26z" fill="#E4F1FA"/>
<path transform="translate(417,589)" d="m0 0 2 2-1 25v28l1 41 1 34-2 2-1-5-3-60v-18l2-47z" fill="#E4F1FA"/>
<path transform="translate(1323,1097)" d="m0 0 8 2h12l3 5 3 1-1 8-23-2-1-5-5-6 1-2z" fill="#FCFDFD"/>
<path transform="translate(331,1151)" d="m0 0 2 2 1 10-2 6-1 16 3 6 1 4-1 2 4 1-9 2h-6v-36h1v25h2l1-14 3-22z" fill="#F6F8FB"/>
<path transform="translate(331,1151)" d="m0 0 2 2 1 10-2 6-3 18v8l-3-3-1-3 3-20 2-16z" fill="#E4F1FA"/>
<path transform="translate(1352,1102)" d="m0 0 6 1 2 3 4 1 2 1v2l-6 4-1 3-5 1-1-7v-6l-3-1z" fill="#FDFEFE"/>
<path transform="translate(417,1076)" d="m0 0 5 1v15l-5 1-1-7-1-4z" fill="#E4F1FA"/>
<path transform="translate(337,1190)" d="m0 0 7 1 4 5-9 1-2-1z" fill="#FCFDFD"/>
<path transform="translate(1310,874)" d="m0 0h1v31l-3-4v-4h2l-1-20z" fill="#E4F1FA"/>
<path transform="translate(897,629)" d="m0 0 5 2v4l-2 2h-3l-1-5z" fill="#E1F2FA"/>
</svg>
